M48
;Layer_Color=9474304
;FILE_FORMAT=4:4
METRIC,LZ
;TYPE=PLATED
T1F00S00C1.0000
T2F00S00C1.0200
T3F00S00C1.3000
%
T01
X004925Y00425
X005175
X005425
X0056Y005075
X005854
X006875Y005242
Y006258
X00385Y006468
Y005452
X003825Y008842
X0035
Y009858
X003825
X0042Y00885
X0069Y009258
Y008242
X00634Y011676
T02
X00634Y010152
Y010406
Y01066
Y010914
Y011168
Y011422
T03
X004675Y00575
Y00625
X004625Y00705
Y00755
X005975
Y00705
X005925Y00625
Y00575
X007225Y00705
Y00755
X003375
Y00705
X004675Y00835
Y00885
X005925
Y00835
M30
